<svg width="171" height="58" viewBox="0 0 171 58" fill="none" xmlns="http://www.w3.org/2000/svg">
<path d="M153.806 55.4011C154.266 55.4011 154.639 55.0281 154.639 54.5679C154.639 54.1078 154.266 53.7347 153.806 53.7347C153.346 53.7347 152.973 54.1078 152.973 54.5679C152.973 55.0281 153.346 55.4011 153.806 55.4011Z" fill="#57CC99"/>
<path d="M79.5527 55.4011C80.0129 55.4011 80.3859 55.0281 80.3859 54.5679C80.3859 54.1078 80.0129 53.7347 79.5527 53.7347C79.0925 53.7347 78.7195 54.1078 78.7195 54.5679C78.7195 55.0281 79.0925 55.4011 79.5527 55.4011Z" fill="#57CC99"/>
<path d="M79.277 54.5679H153.33" stroke="#57CC99" stroke-width="2" stroke-miterlimit="10"/>
<path d="M40.8697 21.3807C40.3991 21.2938 39.9086 21.2466 39.3982 21.2466C38.2832 21.2466 37.2066 21.516 36.1673 22.0636C35.1292 22.6025 34.2054 23.3426 33.4082 24.2751C32.8991 24.8711 32.4856 25.5057 32.1678 26.1886V21.747H27.4666V45.4649H32.1678V32.3611C32.1678 31.4857 32.3317 30.6886 32.6682 29.9485C32.9947 29.2084 33.4368 28.564 33.9943 28.0065C34.5518 27.4489 35.2062 27.0069 35.9364 26.689C36.6764 26.3724 37.455 26.2184 38.2633 26.2184C38.6867 26.2184 39.1189 26.2755 39.5522 26.3724C39.9943 26.4779 40.3891 26.6133 40.7542 26.7573L41.9748 21.6998C41.7053 21.5843 41.3304 21.4788 40.8697 21.3819V21.3807Z" fill="#074568"/>
<path d="M66.1074 32.7262C66.136 31.0723 65.8864 29.5338 65.3575 28.1406C64.8285 26.7375 64.0785 25.5256 63.0975 24.4974C62.1166 23.478 60.963 22.6709 59.6456 22.0848C58.3182 21.4987 56.8865 21.2007 55.348 21.2007C53.5984 21.2007 51.983 21.5086 50.4929 22.1332C49.0029 22.7491 47.7239 23.6233 46.6474 24.7483C45.5807 25.8832 44.7438 27.2093 44.1379 28.7478C43.5418 30.2863 43.2339 31.9874 43.2339 33.8525C43.2339 36.208 43.7728 38.2841 44.8394 40.0921C45.916 41.9 47.3874 43.323 49.2711 44.3611C51.156 45.3991 53.3191 45.9182 55.7516 45.9182C56.8666 45.9182 58.0115 45.7642 59.165 45.4476C60.3285 45.1309 61.425 44.6976 62.463 44.1587C63.5011 43.6198 64.3864 42.9853 65.1066 42.2651L62.761 38.9571C61.5876 39.9853 60.4924 40.6968 59.4829 41.0817C58.4734 41.4753 57.3869 41.6678 56.2048 41.6678C54.5508 41.6678 53.0893 41.3412 51.8303 40.6782C50.5612 40.0151 49.5803 39.0726 48.8886 37.852C48.3696 36.9294 48.043 35.8901 47.9176 34.718H66.0603L66.1087 32.7275L66.1074 32.7262ZM48.7061 29.1303C49.2835 27.9382 50.1192 27.0342 51.2342 26.4196C52.3493 25.8037 53.7239 25.497 55.3493 25.497C56.3774 25.497 57.3199 25.718 58.1953 26.17C59.0707 26.622 59.7909 27.2466 60.3683 28.0251C60.9357 28.8136 61.2722 29.6977 61.3579 30.6886V31.0065H48.0902C48.2343 30.3235 48.4367 29.699 48.7061 29.1315V29.1303Z" fill="#074568"/>
<path d="M93.1718 27.2552C92.2107 25.4187 90.8933 23.9771 89.2393 22.9192C87.5853 21.8612 85.6818 21.3323 83.5473 21.3323C82.2497 21.3323 80.9894 21.6017 79.7688 22.1307C78.5569 22.6597 77.5188 23.3327 76.6831 24.1597C76.3565 24.4763 76.0871 24.7942 75.8661 25.1207V21.7458H71.1649V55.4048H75.8661V42.3582C76.02 42.5308 76.1827 42.7133 76.3665 42.8871C77.2704 43.7625 78.3669 44.4827 79.6645 45.0403C80.9534 45.5978 82.2994 45.8772 83.6839 45.8772C85.76 45.8772 87.6263 45.3383 89.289 44.2716C90.9429 43.1951 92.2504 41.7336 93.1929 39.8872C94.1453 38.032 94.6159 35.936 94.6159 33.5805C94.6159 31.225 94.1354 29.0905 93.1743 27.254L93.1718 27.2552ZM89.1909 37.6968C88.5663 38.8988 87.7008 39.8499 86.6243 40.5428C85.5378 41.2344 84.2973 41.5809 82.9128 41.5809C81.5283 41.5809 80.2493 41.2344 79.1628 40.5428C78.0763 39.8499 77.2208 38.8988 76.5863 37.6968C75.9517 36.4948 75.6339 35.1202 75.6339 33.5818C75.6339 32.0433 75.9505 30.6786 76.5863 29.4667C77.2208 28.2647 78.0763 27.3223 79.1628 26.6493C80.2493 25.9663 81.4985 25.6298 82.9128 25.6298C84.3271 25.6298 85.5762 25.9763 86.6627 26.6679C87.7492 27.3595 88.5949 28.302 89.2207 29.494C89.8366 30.6861 90.1433 32.042 90.1433 33.5805C90.1433 35.119 89.8254 36.4936 89.1909 37.6955V37.6968Z" fill="#074568"/>
<path d="M22.0068 27.2552C21.0458 25.4187 19.7283 23.9771 18.0743 22.9192C16.4204 21.8612 14.5168 21.3323 12.3823 21.3323C11.0848 21.3323 9.82442 21.6017 8.60382 22.1307C7.39191 22.6597 6.35384 23.3327 5.51816 24.1597C5.19159 24.4763 4.92214 24.7942 4.70112 25.1207V21.7458H0V55.4048H4.70112V42.3582C4.85509 42.5308 5.01775 42.7133 5.20153 42.8871C6.10549 43.7625 7.20192 44.4827 8.49951 45.0403C9.78841 45.5978 11.1344 45.8772 12.5189 45.8772C14.5951 45.8772 16.4614 45.3383 18.124 44.2716C19.778 43.1951 21.0855 41.7336 22.028 39.8872C22.9803 38.032 23.451 35.936 23.451 33.5805C23.451 31.225 22.9704 29.0905 22.0093 27.254L22.0068 27.2552ZM18.0272 37.6968C17.4026 38.8988 16.5371 39.8499 15.4605 40.5428C14.374 41.2344 13.1336 41.5809 11.7491 41.5809C10.3646 41.5809 9.0856 41.2344 7.9991 40.5428C6.91261 39.8499 6.05707 38.8988 5.42255 37.6968C4.78804 36.4948 4.47016 35.1202 4.47016 33.5818C4.47016 32.0433 4.7868 30.6786 5.42255 29.4667C6.05707 28.2647 6.91261 27.3223 7.9991 26.6493C9.0856 25.9663 10.3348 25.6298 11.7491 25.6298C13.1634 25.6298 14.4125 25.9763 15.499 26.6679C16.5855 27.3595 17.4311 28.302 18.057 29.494C18.6729 30.6861 18.9796 32.042 18.9796 33.5805C18.9796 35.119 18.6617 36.4936 18.0272 37.6955V37.6968Z" fill="#074568"/>
<path d="M103.613 25.7653L103.565 33.629H124.264V25.7653H103.613Z" fill="#074568"/>
<path d="M100.171 25.6883V45.465H109.122V22.9491C106.093 23.3725 103.132 24.2852 100.171 25.6896V25.6883Z" fill="#074568"/>
<path d="M119.318 22.9478V45.4637H128.269V25.687C125.307 24.2839 122.346 23.37 119.318 22.9465V22.9478Z" fill="#074568"/>
<path d="M135.734 7.73803L116.017 16.3841C114.681 16.9702 113.16 16.9702 111.822 16.3841L92.0952 7.73679L112.104 0.325018C113.275 -0.108339 114.563 -0.108339 115.734 0.325018L135.734 7.73803Z" fill="#57CC99"/>
<path d="M128.244 12.6515V24.4862C128.244 24.4862 128.234 24.4862 128.224 24.4763C128.214 24.4664 128.186 24.4577 128.157 24.4477C127.734 24.2168 125.58 23.1688 122.302 22.3517C122.023 22.2847 121.745 22.2176 121.457 22.1406C119.726 21.7272 118.284 21.5347 117.149 21.4577C112.323 20.9958 106.362 21.4676 100.17 24.4862V12.6515L112.86 18.1225C113.716 18.4875 114.697 18.4875 115.552 18.1225L128.243 12.6515H128.244Z" fill="#57CC99"/>
<path d="M128.282 20.5153L128.244 24.4863C128.244 24.4863 128.234 24.4862 128.224 24.4763C128.214 24.4664 128.186 24.4577 128.157 24.4478C127.734 24.2168 125.58 23.1688 122.302 22.3517C122.023 22.2847 121.745 22.2176 121.457 22.1407C119.726 21.7272 118.284 21.5347 117.149 21.4577C112.323 20.9958 106.362 21.4677 100.17 24.4863V20.5153H128.282Z" fill="#57CC99"/>
<path d="M164.932 49.293C163.172 50.6055 160.676 50.2045 159.415 48.4077L154.762 41.777L149.234 34.1914L148.769 33.5544C147.49 31.7998 147.894 29.3387 149.665 28.0834L149.677 28.0747C151.418 26.8404 153.828 27.2378 155.082 28.965L156.051 30.2986L161.522 37.8172L165.798 43.9425C167.003 45.6672 166.619 48.0364 164.933 49.2943L164.932 49.293Z" fill="#074568"/>
<path d="M166.24 23.0967C165.423 21.1063 164.26 19.3766 162.741 17.9051C161.213 16.425 159.443 15.2802 157.406 14.473C155.368 13.656 153.137 13.2524 150.695 13.2524C148.254 13.2524 146.013 13.656 143.965 14.473C141.918 15.2802 140.138 16.425 138.63 17.9051C137.12 19.3766 135.957 21.1063 135.13 23.0967C134.303 25.0872 133.89 27.2887 133.89 29.6927C133.89 32.0966 134.303 34.2696 135.13 36.2688C135.957 38.2779 137.121 40.0188 138.63 41.4889C140.14 42.9691 141.918 44.1139 143.965 44.921C146.013 45.7381 148.253 46.1416 150.695 46.1416C152.599 46.1416 154.377 45.8921 156.031 45.4016C156.502 45.2575 156.954 45.1036 157.406 44.921C159.443 44.1139 161.213 42.9691 162.741 41.4889C162.761 41.4703 162.77 41.4604 162.79 41.4405C164.29 39.979 165.433 38.258 166.242 36.2676C167.049 34.2684 167.462 32.0755 167.462 29.6915C167.462 27.3074 167.049 25.0859 166.242 23.0955L166.24 23.0967ZM156.164 35.5474C155.472 36.2874 154.654 36.8549 153.721 37.2398C152.789 37.6334 151.779 37.8259 150.693 37.8259C150.626 37.8259 150.559 37.8259 150.5 37.816C149.452 37.806 148.491 37.6136 147.616 37.2386C146.683 36.8536 145.876 36.2862 145.183 35.5461C144.492 34.8061 143.953 33.9406 143.578 32.9497C143.203 31.9501 143.01 30.8736 143.01 29.6902C143.01 28.5069 143.203 27.4017 143.578 26.4208C143.953 25.4398 144.492 24.5843 145.183 23.8442C145.876 23.1042 146.683 22.5367 147.616 22.1518C148.548 21.7582 149.578 21.5558 150.693 21.5558C151.808 21.5558 152.789 21.7582 153.721 22.1518C154.654 22.5367 155.471 23.1042 156.164 23.8442C156.857 24.5843 157.384 25.4498 157.769 26.4407C158.144 27.4303 158.327 28.5168 158.327 29.6902C158.327 30.8636 158.144 31.9501 157.769 32.9497C157.635 33.2862 157.49 33.6128 157.317 33.9207C156.999 34.5167 156.616 35.0556 156.164 35.5461V35.5474Z" fill="#074568"/>
<path d="M170.093 57.0799L157.254 51.7281C157.024 51.6325 157.086 51.291 157.335 51.2811L162.678 51.0849C164.673 51.0116 166.434 49.7575 167.154 47.8949L169.085 42.9045C169.174 42.6723 169.518 42.7245 169.533 42.974L170.414 56.8514C170.425 57.0228 170.251 57.1469 170.092 57.0811L170.093 57.0799Z" fill="#57CC99"/>
<path d="M129.715 51.5121C130.162 51.5121 130.524 51.1502 130.524 50.7037C130.524 50.2573 130.162 49.8954 129.715 49.8954C129.269 49.8954 128.907 50.2573 128.907 50.7037C128.907 51.1502 129.269 51.5121 129.715 51.5121Z" fill="#074568"/>
<path d="M102.354 51.5121C102.801 51.5121 103.163 51.1502 103.163 50.7037C103.163 50.2573 102.801 49.8954 102.354 49.8954C101.908 49.8954 101.546 50.2573 101.546 50.7037C101.546 51.1502 101.908 51.5121 102.354 51.5121Z" fill="#074568"/>
<path d="M78.7183 52.5327V48.7083H80.3412C80.5709 48.7083 80.7758 48.7616 80.9583 48.8697C81.1409 48.9777 81.2849 49.1242 81.3929 49.3092C81.4997 49.4955 81.5543 49.7041 81.5543 49.9375C81.5543 50.171 81.5009 50.387 81.3929 50.577C81.2849 50.767 81.1409 50.9173 80.9583 51.0278C80.7758 51.1395 80.5709 51.1942 80.3412 51.1942H79.5378V52.5327H78.7183ZM79.5279 50.4566H80.2493C80.3362 50.4566 80.4145 50.4342 80.484 50.3883C80.5535 50.3423 80.6082 50.2815 80.6504 50.2058C80.6926 50.1288 80.7137 50.0419 80.7137 49.9438C80.7137 49.8457 80.6926 49.76 80.6504 49.6867C80.6082 49.6135 80.5523 49.5551 80.484 49.5116C80.4145 49.4682 80.3362 49.4458 80.2493 49.4458H79.5279V50.4566Z" fill="#074568"/>
<path d="M82.1777 52.5327V49.642H82.9264L82.9537 50.5708L82.8221 50.3796C82.8656 50.2306 82.9364 50.0952 83.0357 49.9723C83.1338 49.8506 83.2493 49.755 83.3821 49.6855C83.515 49.6159 83.6541 49.5812 83.8006 49.5812C83.8627 49.5812 83.9223 49.5861 83.9806 49.5973C84.039 49.6085 84.0874 49.6209 84.1284 49.6358L83.921 50.4876C83.8813 50.4653 83.8291 50.4467 83.7658 50.4305C83.7025 50.4144 83.6379 50.4057 83.5721 50.4057C83.4852 50.4057 83.4032 50.4206 83.3287 50.4516C83.2542 50.4827 83.1897 50.5261 83.135 50.5832C83.0804 50.6404 83.0369 50.7062 83.0071 50.7832C82.9761 50.8601 82.9612 50.9433 82.9612 51.034V52.5315H82.1802L82.1777 52.5327Z" fill="#074568"/>
<path d="M85.8209 52.5874C85.508 52.5874 85.2335 52.5241 84.9989 52.3962C84.7642 52.2683 84.5816 52.0944 84.4525 51.8722C84.3234 51.6499 84.2588 51.3954 84.2588 51.1073C84.2588 50.8813 84.2948 50.6752 84.3681 50.4902C84.4413 50.3039 84.5431 50.1437 84.6735 50.0071C84.8051 49.8705 84.9604 49.765 85.1404 49.6905C85.3204 49.616 85.5166 49.5787 85.7277 49.5787C85.9239 49.5787 86.1065 49.6147 86.2741 49.688C86.4417 49.7613 86.587 49.8618 86.7087 49.991C86.8304 50.1201 86.9247 50.2729 86.9906 50.4504C87.0564 50.6267 87.0849 50.818 87.0775 51.0216L87.0725 51.2625H84.7505L84.6251 50.7869H86.433L86.3461 50.885V50.7646C86.3387 50.6665 86.3064 50.5783 86.2505 50.5001C86.1934 50.4219 86.1226 50.3598 86.0344 50.3138C85.9475 50.2679 85.8482 50.2455 85.7389 50.2455C85.5787 50.2455 85.4434 50.2766 85.3316 50.3387C85.2199 50.4007 85.1354 50.4914 85.0771 50.6118C85.0187 50.7323 84.9902 50.8776 84.9902 51.0489C84.9902 51.2203 85.0274 51.3742 85.1019 51.5021C85.1764 51.63 85.282 51.7294 85.4185 51.8002C85.5551 51.8709 85.7166 51.9069 85.9016 51.9069C86.0295 51.9069 86.1449 51.8871 86.2517 51.8473C86.3573 51.8076 86.4703 51.7381 86.5907 51.64L86.962 52.159C86.8565 52.2534 86.7397 52.3329 86.6118 52.3962C86.4839 52.4595 86.3536 52.5079 86.2182 52.5415C86.0829 52.5737 85.95 52.5911 85.8196 52.5911L85.8209 52.5874Z" fill="#074568"/>
<path d="M87.6512 53.7347V49.6421H88.3999L88.4223 50.2927L88.2807 50.243C88.3055 50.1263 88.3689 50.0195 88.4694 49.9202C88.57 49.8221 88.6942 49.7414 88.8432 49.6793C88.9922 49.6172 89.1487 49.5862 89.3126 49.5862C89.5634 49.5862 89.7881 49.6508 89.9843 49.7799C90.1805 49.909 90.3357 50.0854 90.4487 50.3101C90.5617 50.5336 90.6176 50.7919 90.6176 51.0837C90.6176 51.3755 90.5605 51.6288 90.4487 51.8535C90.3357 52.0795 90.1805 52.2571 89.9843 52.3862C89.7881 52.5154 89.5634 52.5799 89.3126 52.5799C89.1449 52.5799 88.986 52.5477 88.8345 52.4843C88.683 52.421 88.5564 52.3353 88.4521 52.2298C88.3478 52.1242 88.2819 52.0112 88.2521 51.8908L88.4322 51.8138V53.731H87.6512V53.7347ZM89.1375 51.9156C89.279 51.9156 89.4057 51.8809 89.515 51.8113C89.6242 51.7418 89.7099 51.6449 89.772 51.5195C89.8341 51.3941 89.8651 51.2488 89.8651 51.0849C89.8651 50.921 89.8341 50.777 89.772 50.6528C89.7099 50.5286 89.6255 50.433 89.5174 50.3635C89.4094 50.294 89.2828 50.2592 89.1375 50.2592C88.9922 50.2592 88.8643 50.2927 88.755 50.3598C88.6458 50.4268 88.5601 50.5237 88.498 50.6491C88.4359 50.7745 88.4049 50.9198 88.4049 51.0837C88.4049 51.2476 88.4359 51.3929 88.498 51.5183C88.5601 51.6437 88.6458 51.7418 88.755 51.8101C88.8643 51.8796 88.9922 51.9144 89.1375 51.9144V51.9156Z" fill="#074568"/>
<path d="M92.284 52.5873C92.0431 52.5873 91.827 52.5215 91.6333 52.3911C91.4396 52.2595 91.2869 52.082 91.1739 51.856C91.0609 51.63 91.005 51.3717 91.005 51.0799C91.005 50.7881 91.0621 50.5298 91.1776 50.3038C91.2918 50.0778 91.4483 49.9015 91.6445 49.7736C91.8407 49.6457 92.0654 49.5824 92.3163 49.5824C92.4578 49.5824 92.5882 49.6035 92.7074 49.6457C92.8253 49.6879 92.9297 49.7451 93.0191 49.8183C93.1085 49.8916 93.1842 49.9748 93.2463 50.0691C93.3084 50.1635 93.3518 50.2653 93.3779 50.3746L93.214 50.3473V49.642H93.9839V52.5327H93.2028V51.8386L93.3779 51.8224C93.3481 51.9243 93.3009 52.0211 93.2364 52.1118C93.1705 52.2024 93.0898 52.2844 92.993 52.3551C92.8961 52.4259 92.7881 52.483 92.6677 52.524C92.5472 52.565 92.4193 52.5873 92.2852 52.5873H92.284ZM92.4975 51.9156C92.6428 51.9156 92.7707 51.8808 92.88 51.8113C92.9893 51.7417 93.0737 51.6449 93.1345 51.5195C93.1941 51.3941 93.2252 51.2475 93.2252 51.0799C93.2252 50.9123 93.1954 50.772 93.1345 50.6478C93.0749 50.5236 92.9893 50.4268 92.88 50.356C92.7707 50.2852 92.6428 50.2492 92.4975 50.2492C92.3523 50.2492 92.2306 50.2852 92.1238 50.356C92.0158 50.4268 91.9313 50.5249 91.8692 50.6478C91.8071 50.772 91.7761 50.916 91.7761 51.0799C91.7761 51.2438 91.8071 51.3941 91.8692 51.5195C91.9313 51.6449 92.0158 51.743 92.1238 51.8113C92.2306 51.8808 92.356 51.9156 92.4975 51.9156Z" fill="#074568"/>
<path d="M94.7599 52.5327V49.642H95.5087L95.536 50.5708L95.4044 50.3796C95.4478 50.2306 95.5186 50.0952 95.618 49.9723C95.716 49.8506 95.8315 49.755 95.9644 49.6855C96.0973 49.6159 96.2363 49.5812 96.3829 49.5812C96.4449 49.5812 96.5045 49.5861 96.5629 49.5973C96.6213 49.6085 96.6697 49.6209 96.7107 49.6358L96.5033 50.4876C96.4636 50.4653 96.4114 50.4467 96.3481 50.4305C96.2848 50.4144 96.2202 50.4057 96.1544 50.4057C96.0675 50.4057 95.9855 50.4206 95.911 50.4516C95.8365 50.4827 95.7719 50.5261 95.7173 50.5832C95.6627 50.6404 95.6192 50.7062 95.5894 50.7832C95.5584 50.8601 95.5435 50.9433 95.5435 51.034V52.5315H94.7624L94.7599 52.5327Z" fill="#074568"/>
<path d="M98.4031 52.5874C98.0902 52.5874 97.8158 52.5241 97.5811 52.3962C97.3464 52.2683 97.1639 52.0944 97.0348 51.8722C96.9056 51.6499 96.841 51.3954 96.841 51.1073C96.841 50.8813 96.8771 50.6752 96.9503 50.4902C97.0236 50.3039 97.1254 50.1437 97.2558 50.0071C97.3874 49.8705 97.5426 49.765 97.7227 49.6905C97.9027 49.616 98.0989 49.5787 98.31 49.5787C98.5062 49.5787 98.6887 49.6147 98.8563 49.688C99.024 49.7613 99.1693 49.8618 99.2909 49.991C99.4126 50.1201 99.507 50.2729 99.5728 50.4504C99.6386 50.6267 99.6672 50.818 99.6597 51.0216L99.6548 51.2625H97.3328L97.2073 50.7869H99.0153L98.9284 50.885V50.7646C98.9209 50.6665 98.8886 50.5783 98.8328 50.5001C98.7756 50.4219 98.7049 50.3598 98.6167 50.3138C98.5298 50.2679 98.4304 50.2455 98.3212 50.2455C98.161 50.2455 98.0256 50.2766 97.9139 50.3387C97.8021 50.4007 97.7177 50.4914 97.6593 50.6118C97.601 50.7323 97.5724 50.8776 97.5724 51.0489C97.5724 51.2203 97.6097 51.3742 97.6842 51.5021C97.7587 51.63 97.8642 51.7294 98.0008 51.8002C98.1374 51.8709 98.2988 51.9069 98.4838 51.9069C98.6117 51.9069 98.7272 51.8871 98.834 51.8473C98.9395 51.8076 99.0525 51.7381 99.173 51.64L99.5442 52.159C99.4387 52.2534 99.322 52.3329 99.1941 52.3962C99.0662 52.4595 98.9358 52.5079 98.8005 52.5415C98.6651 52.5737 98.5323 52.5911 98.4019 52.5911L98.4031 52.5874Z" fill="#074568"/>
<path d="M106.976 52.5874C106.695 52.5874 106.438 52.539 106.202 52.4421C105.968 52.3453 105.763 52.2087 105.59 52.0324C105.418 51.856 105.283 51.6462 105.189 51.4041C105.095 51.1619 105.048 50.8974 105.048 50.6094C105.048 50.3213 105.097 50.0692 105.195 49.8308C105.293 49.5924 105.432 49.385 105.61 49.2075C105.789 49.0312 105.997 48.8933 106.238 48.7952C106.479 48.6971 106.739 48.6475 107.019 48.6475C107.202 48.6475 107.381 48.6723 107.557 48.7207C107.733 48.7704 107.896 48.8424 108.044 48.9368C108.192 49.0311 108.318 49.1441 108.424 49.2758L107.91 49.8445C107.825 49.7576 107.737 49.6818 107.641 49.6172C107.547 49.5539 107.448 49.5042 107.343 49.4695C107.239 49.4347 107.13 49.4173 107.013 49.4173C106.857 49.4173 106.71 49.4471 106.574 49.5042C106.437 49.5626 106.318 49.6433 106.216 49.7476C106.114 49.8519 106.033 49.9773 105.973 50.1251C105.913 50.2729 105.882 50.4355 105.882 50.6143C105.882 50.7931 105.91 50.9608 105.969 51.1085C106.027 51.2563 106.109 51.3817 106.215 51.486C106.32 51.5903 106.447 51.6698 106.595 51.7269C106.742 51.784 106.905 51.8113 107.084 51.8113C107.201 51.8113 107.314 51.7952 107.423 51.7617C107.532 51.7281 107.633 51.6834 107.726 51.6251C107.819 51.5667 107.902 51.4997 107.974 51.4227L108.379 52.0622C108.288 52.1603 108.169 52.2497 108.021 52.3304C107.874 52.4111 107.708 52.4732 107.527 52.5191C107.345 52.5651 107.161 52.5874 106.976 52.5874Z" fill="#074568"/>
<path d="M110.299 52.5875C110.003 52.5875 109.74 52.5229 109.509 52.3938C109.278 52.2646 109.095 52.0871 108.963 51.8611C108.83 51.6351 108.763 51.3768 108.763 51.085C108.763 50.7932 108.829 50.5349 108.963 50.3089C109.095 50.0829 109.278 49.9054 109.509 49.7762C109.74 49.6471 110.003 49.5825 110.299 49.5825C110.594 49.5825 110.851 49.6471 111.082 49.7762C111.313 49.9054 111.494 50.0829 111.626 50.3089C111.758 50.5349 111.822 50.7932 111.822 51.085C111.822 51.3768 111.756 51.6351 111.626 51.8611C111.494 52.0871 111.313 52.2646 111.082 52.3938C110.851 52.5229 110.589 52.5875 110.299 52.5875ZM110.299 51.9095C110.44 51.9095 110.568 51.8735 110.681 51.8027C110.794 51.7319 110.882 51.6338 110.946 51.5072C111.009 51.3818 111.039 51.2402 111.036 51.0837C111.04 50.9236 111.01 50.7808 110.946 50.6554C110.882 50.5299 110.793 50.4319 110.681 50.3598C110.568 50.2891 110.44 50.253 110.299 50.253C110.157 50.253 110.023 50.2891 109.911 50.3623C109.798 50.4356 109.709 50.5337 109.643 50.6578C109.577 50.782 109.546 50.9236 109.55 51.0837C109.546 51.2402 109.577 51.3818 109.643 51.5072C109.709 51.6326 109.798 51.7307 109.911 51.8027C110.024 51.8735 110.153 51.9095 110.299 51.9095Z" fill="#074568"/>
<path d="M112.412 52.5328V49.6421H113.155L113.177 50.2319L113.024 50.2977C113.064 50.1661 113.136 50.0469 113.24 49.9401C113.345 49.8333 113.469 49.7464 113.614 49.6806C113.759 49.6148 113.912 49.5825 114.074 49.5825C114.292 49.5825 114.475 49.626 114.622 49.7141C114.77 49.8023 114.881 49.9339 114.955 50.1102C115.03 50.2866 115.067 50.5039 115.067 50.7634V52.5341H114.291V50.8242C114.291 50.6926 114.272 50.5833 114.236 50.4964C114.2 50.4095 114.144 50.3449 114.07 50.3052C113.995 50.2655 113.903 50.2468 113.794 50.2506C113.707 50.2506 113.625 50.2642 113.551 50.2915C113.476 50.3189 113.413 50.3586 113.36 50.4095C113.306 50.4604 113.265 50.5188 113.234 50.5846C113.203 50.6504 113.188 50.7212 113.188 50.7982V52.5353H112.412V52.5328Z" fill="#074568"/>
<path d="M115.811 52.5328V49.6421H116.553L116.576 50.2319L116.423 50.2977C116.463 50.1661 116.535 50.0469 116.639 49.9401C116.743 49.8333 116.867 49.7464 117.013 49.6806C117.158 49.6148 117.311 49.5825 117.472 49.5825C117.691 49.5825 117.873 49.626 118.021 49.7141C118.169 49.8023 118.279 49.9339 118.354 50.1102C118.428 50.2866 118.465 50.5039 118.465 50.7634V52.5341H117.689V50.8242C117.689 50.6926 117.671 50.5833 117.635 50.4964C117.599 50.4095 117.543 50.3449 117.468 50.3052C117.394 50.2655 117.302 50.2468 117.193 50.2506C117.106 50.2506 117.024 50.2642 116.949 50.2915C116.875 50.3189 116.811 50.3586 116.758 50.4095C116.705 50.4604 116.664 50.5188 116.633 50.5846C116.602 50.6504 116.587 50.7212 116.587 50.7982V52.5353H115.811V52.5328Z" fill="#074568"/>
<path d="M120.58 52.5874C120.267 52.5874 119.993 52.5241 119.758 52.3962C119.523 52.2683 119.341 52.0944 119.212 51.8722C119.083 51.6499 119.018 51.3954 119.018 51.1073C119.018 50.8813 119.054 50.6752 119.127 50.4902C119.201 50.3039 119.302 50.1437 119.433 50.0071C119.564 49.8705 119.72 49.765 119.9 49.6905C120.08 49.616 120.276 49.5787 120.487 49.5787C120.683 49.5787 120.866 49.6147 121.033 49.688C121.201 49.7613 121.346 49.8618 121.468 49.991C121.59 50.1201 121.684 50.2729 121.75 50.4504C121.816 50.6267 121.844 50.818 121.837 51.0216L121.832 51.2625H119.51L119.384 50.7869H121.192L121.105 50.885V50.7646C121.098 50.6665 121.066 50.5783 121.01 50.5001C120.953 50.4219 120.882 50.3598 120.794 50.3138C120.707 50.2679 120.607 50.2455 120.498 50.2455C120.338 50.2455 120.203 50.2766 120.091 50.3387C119.979 50.4007 119.895 50.4914 119.836 50.6118C119.778 50.7323 119.749 50.8776 119.749 51.0489C119.749 51.2203 119.787 51.3742 119.861 51.5021C119.936 51.63 120.041 51.7294 120.178 51.8002C120.314 51.8709 120.476 51.9069 120.661 51.9069C120.789 51.9069 120.904 51.8871 121.011 51.8473C121.116 51.8076 121.229 51.7381 121.35 51.64L121.721 52.159C121.616 52.2534 121.499 52.3329 121.371 52.3962C121.243 52.4595 121.113 52.5079 120.977 52.5415C120.842 52.5737 120.709 52.5911 120.579 52.5911L120.58 52.5874Z" fill="#074568"/>
<path d="M123.667 52.5874C123.39 52.5874 123.143 52.5216 122.924 52.3912C122.706 52.2596 122.533 52.082 122.408 51.8561C122.282 51.6301 122.219 51.373 122.219 51.0862C122.219 50.7994 122.282 50.5423 122.408 50.3163C122.533 50.0903 122.706 49.9115 122.924 49.7812C123.143 49.6495 123.39 49.585 123.667 49.585C123.925 49.585 124.162 49.6321 124.377 49.7265C124.592 49.8209 124.76 49.9525 124.88 50.1201L124.454 50.6342C124.403 50.5647 124.34 50.5026 124.263 50.4455C124.186 50.3896 124.104 50.3449 124.015 50.3114C123.925 50.2791 123.833 50.2617 123.739 50.2617C123.59 50.2617 123.457 50.2977 123.343 50.3685C123.229 50.4393 123.138 50.5374 123.072 50.6603C123.006 50.7845 122.974 50.926 122.974 51.0862C122.974 51.2464 123.008 51.378 123.075 51.5009C123.142 51.6251 123.234 51.7232 123.35 51.7965C123.467 51.8697 123.597 51.9057 123.744 51.9057C123.838 51.9057 123.928 51.8933 124.012 51.8672C124.095 51.8412 124.175 51.8014 124.249 51.7468C124.324 51.6921 124.392 51.6263 124.454 51.5506L124.875 52.0647C124.755 52.2211 124.585 52.3478 124.365 52.4446C124.145 52.5415 123.912 52.5899 123.668 52.5899L123.667 52.5874Z" fill="#074568"/>
<path d="M125.11 50.3361V49.642H127.022V50.3361H125.11ZM125.65 52.5327V48.9106H126.426V52.5327H125.65Z" fill="#074568"/>
<path d="M133.982 52.5873C133.745 52.5873 133.529 52.5575 133.335 52.5004C133.14 52.4421 132.967 52.3564 132.816 52.2434C132.664 52.1304 132.529 51.9938 132.409 51.8336L132.923 51.2488C133.101 51.4971 133.279 51.6647 133.455 51.7541C133.632 51.8435 133.824 51.8883 134.032 51.8883C134.145 51.8883 134.245 51.8721 134.335 51.8386C134.424 51.8063 134.493 51.7616 134.544 51.7045C134.595 51.6486 134.621 51.5803 134.621 51.4996C134.621 51.4412 134.609 51.3878 134.583 51.3382C134.557 51.2885 134.521 51.245 134.474 51.2066C134.426 51.1681 134.369 51.1333 134.305 51.1022C134.239 51.0712 134.166 51.0439 134.086 51.0203C134.005 50.9967 133.919 50.9781 133.824 50.9632C133.621 50.916 133.442 50.8589 133.289 50.7906C133.136 50.7235 133.008 50.6391 132.907 50.5398C132.805 50.4392 132.729 50.3262 132.679 50.1983C132.63 50.0704 132.606 49.9276 132.606 49.7662C132.606 49.6047 132.642 49.4508 132.715 49.3105C132.789 49.1701 132.889 49.0497 133.018 48.9466C133.147 48.8448 133.296 48.7666 133.467 48.712C133.635 48.6573 133.815 48.63 134.004 48.63C134.238 48.63 134.441 48.6561 134.616 48.707C134.791 48.7579 134.943 48.8336 135.072 48.9342C135.201 49.0348 135.309 49.1552 135.397 49.298L134.878 49.8009C134.801 49.6991 134.719 49.6134 134.63 49.5439C134.541 49.4744 134.444 49.4235 134.341 49.3887C134.236 49.3539 134.131 49.3365 134.022 49.3365C133.901 49.3365 133.798 49.3514 133.71 49.3825C133.623 49.4135 133.555 49.4595 133.505 49.5191C133.455 49.5787 133.432 49.6494 133.432 49.7289C133.432 49.7947 133.448 49.8531 133.481 49.904C133.514 49.9549 133.562 49.9996 133.623 50.0381C133.685 50.0766 133.76 50.1101 133.847 50.1387C133.933 50.1685 134.03 50.1933 134.136 50.2157C134.336 50.2554 134.516 50.3088 134.677 50.3746C134.837 50.4404 134.975 50.5199 135.089 50.6118C135.204 50.7049 135.293 50.8142 135.354 50.9396C135.416 51.065 135.447 51.2066 135.447 51.363C135.447 51.6213 135.385 51.8423 135.261 52.0236C135.137 52.2061 134.965 52.3452 134.747 52.4421C134.528 52.5389 134.274 52.5873 133.982 52.5873Z" fill="#074568"/>
<path d="M137.074 52.5874C136.863 52.5874 136.681 52.5415 136.53 52.4483C136.378 52.3552 136.262 52.2223 136.18 52.0497C136.098 51.8771 136.057 51.6685 136.057 51.4239V49.6433H136.833V51.2985C136.833 51.4301 136.855 51.5431 136.899 51.64C136.942 51.7368 137.004 51.8101 137.085 51.861C137.164 51.9119 137.264 51.938 137.38 51.938C137.464 51.938 137.542 51.9243 137.613 51.897C137.683 51.8697 137.745 51.83 137.799 51.7791C137.851 51.7281 137.892 51.6685 137.922 51.599C137.95 51.5295 137.965 51.455 137.965 51.3755V49.6433H138.741V52.534H138.004L137.976 51.938L138.118 51.8722C138.075 52.0075 138.001 52.1292 137.899 52.2385C137.798 52.3478 137.676 52.4334 137.533 52.4955C137.392 52.5576 137.238 52.5886 137.074 52.5886V52.5874Z" fill="#074568"/>
<path d="M140.778 52.5874C140.501 52.5874 140.254 52.5216 140.035 52.3912C139.817 52.2596 139.644 52.082 139.519 51.8561C139.393 51.6301 139.33 51.373 139.33 51.0862C139.33 50.7994 139.393 50.5423 139.519 50.3163C139.644 50.0903 139.817 49.9115 140.035 49.7812C140.254 49.6495 140.501 49.585 140.778 49.585C141.036 49.585 141.273 49.6321 141.488 49.7265C141.703 49.8209 141.87 49.9525 141.991 50.1201L141.565 50.6342C141.514 50.5647 141.451 50.5026 141.374 50.4455C141.297 50.3896 141.215 50.3449 141.125 50.3114C141.036 50.2791 140.944 50.2617 140.85 50.2617C140.701 50.2617 140.568 50.2977 140.454 50.3685C140.339 50.4393 140.249 50.5374 140.183 50.6603C140.117 50.7845 140.085 50.926 140.085 51.0862C140.085 51.2464 140.118 51.378 140.185 51.5009C140.253 51.6251 140.344 51.7232 140.461 51.7965C140.578 51.8697 140.708 51.9057 140.855 51.9057C140.949 51.9057 141.039 51.8933 141.123 51.8672C141.206 51.8412 141.286 51.8014 141.36 51.7468C141.435 51.6921 141.503 51.6263 141.565 51.5506L141.986 52.0647C141.865 52.2211 141.695 52.3478 141.476 52.4446C141.256 52.5415 141.022 52.5899 140.779 52.5899L140.778 52.5874Z" fill="#074568"/>
<path d="M143.739 52.5874C143.462 52.5874 143.215 52.5216 142.997 52.3912C142.778 52.2596 142.606 52.082 142.48 51.8561C142.355 51.6301 142.291 51.373 142.291 51.0862C142.291 50.7994 142.355 50.5423 142.48 50.3163C142.606 50.0903 142.778 49.9115 142.997 49.7812C143.215 49.6495 143.462 49.585 143.739 49.585C143.998 49.585 144.235 49.6321 144.45 49.7265C144.664 49.8209 144.832 49.9525 144.952 50.1201L144.526 50.6342C144.476 50.5647 144.412 50.5026 144.335 50.4455C144.258 50.3896 144.176 50.3449 144.087 50.3114C143.998 50.2791 143.906 50.2617 143.811 50.2617C143.662 50.2617 143.529 50.2977 143.415 50.3685C143.301 50.4393 143.21 50.5374 143.144 50.6603C143.079 50.7845 143.046 50.926 143.046 51.0862C143.046 51.2464 143.08 51.378 143.147 51.5009C143.214 51.6251 143.306 51.7232 143.423 51.7965C143.539 51.8697 143.67 51.9057 143.816 51.9057C143.911 51.9057 144 51.8933 144.084 51.8672C144.168 51.8412 144.247 51.8014 144.322 51.7468C144.396 51.6921 144.464 51.6263 144.526 51.5506L144.947 52.0647C144.827 52.2211 144.657 52.3478 144.437 52.4446C144.217 52.5415 143.984 52.5899 143.74 52.5899L143.739 52.5874Z" fill="#074568"/>
<path d="M146.815 52.5874C146.502 52.5874 146.228 52.5241 145.993 52.3962C145.758 52.2683 145.576 52.0944 145.447 51.8722C145.317 51.6499 145.253 51.3954 145.253 51.1073C145.253 50.8813 145.289 50.6752 145.362 50.4902C145.435 50.3039 145.537 50.1437 145.668 50.0071C145.799 49.8705 145.954 49.765 146.134 49.6905C146.315 49.616 146.511 49.5787 146.722 49.5787C146.918 49.5787 147.101 49.6147 147.268 49.688C147.436 49.7613 147.581 49.8618 147.703 49.991C147.824 50.1201 147.919 50.2729 147.985 50.4504C148.05 50.6267 148.079 50.818 148.072 51.0216L148.067 51.2625H145.745L145.619 50.7869H147.427L147.34 50.885V50.7646C147.333 50.6665 147.3 50.5783 147.245 50.5001C147.187 50.4219 147.117 50.3598 147.029 50.3138C146.942 50.2679 146.842 50.2455 146.733 50.2455C146.573 50.2455 146.437 50.2766 146.326 50.3387C146.214 50.4007 146.13 50.4914 146.071 50.6118C146.013 50.7323 145.984 50.8776 145.984 51.0489C145.984 51.2203 146.021 51.3742 146.096 51.5021C146.17 51.63 146.276 51.7294 146.413 51.8002C146.549 51.8709 146.711 51.9069 146.896 51.9069C147.024 51.9069 147.139 51.8871 147.246 51.8473C147.351 51.8076 147.464 51.7381 147.585 51.64L147.956 52.159C147.851 52.2534 147.734 52.3329 147.606 52.3962C147.478 52.4595 147.348 52.5079 147.212 52.5415C147.077 52.5737 146.944 52.5911 146.814 52.5911L146.815 52.5874Z" fill="#074568"/>
<path d="M150.017 52.5874C149.704 52.5874 149.43 52.5241 149.195 52.3962C148.961 52.2683 148.778 52.0944 148.649 51.8722C148.52 51.6499 148.455 51.3954 148.455 51.1073C148.455 50.8813 148.491 50.6752 148.565 50.4902C148.638 50.3039 148.74 50.1437 148.87 50.0071C149.002 49.8705 149.157 49.765 149.337 49.6905C149.517 49.616 149.713 49.5787 149.924 49.5787C150.12 49.5787 150.303 49.6147 150.471 49.688C150.638 49.7613 150.783 49.8618 150.905 49.991C151.027 50.1201 151.121 50.2729 151.187 50.4504C151.253 50.6267 151.281 50.818 151.274 51.0216L151.269 51.2625H148.947L148.822 50.7869H150.629L150.543 50.885V50.7646C150.535 50.6665 150.503 50.5783 150.447 50.5001C150.39 50.4219 150.319 50.3598 150.231 50.3138C150.144 50.2679 150.045 50.2455 149.935 50.2455C149.775 50.2455 149.64 50.2766 149.528 50.3387C149.416 50.4007 149.332 50.4914 149.274 50.6118C149.215 50.7323 149.187 50.8776 149.187 51.0489C149.187 51.2203 149.224 51.3742 149.298 51.5021C149.373 51.63 149.478 51.7294 149.615 51.8002C149.752 51.8709 149.913 51.9069 150.098 51.9069C150.226 51.9069 150.341 51.8871 150.448 51.8473C150.554 51.8076 150.667 51.7381 150.787 51.64L151.158 52.159C151.053 52.2534 150.936 52.3329 150.808 52.3962C150.68 52.4595 150.55 52.5079 150.415 52.5415C150.279 52.5737 150.146 52.5911 150.016 52.5911L150.017 52.5874Z" fill="#074568"/>
<path d="M152.979 52.5874C152.724 52.5874 152.497 52.5228 152.298 52.3937C152.1 52.2645 151.943 52.0882 151.829 51.8635C151.715 51.6399 151.656 51.3804 151.656 51.0849C151.656 50.7894 151.713 50.5398 151.829 50.3113C151.943 50.0841 152.1 49.9053 152.298 49.7761C152.497 49.647 152.723 49.5824 152.979 49.5824C153.113 49.5824 153.243 49.6035 153.37 49.6458C153.495 49.688 153.608 49.7451 153.709 49.8184C153.81 49.8916 153.89 49.9723 153.952 50.0617C154.014 50.1511 154.049 50.243 154.057 50.3374L153.86 50.3759V48.491H154.641V52.534H153.904L153.872 51.8672L154.024 51.8833C154.017 51.974 153.985 52.0621 153.926 52.1453C153.868 52.2285 153.791 52.3043 153.694 52.3726C153.597 52.4396 153.488 52.493 153.366 52.5315C153.245 52.57 153.115 52.5886 152.981 52.5886L152.979 52.5874ZM153.153 51.9429C153.298 51.9429 153.426 51.9069 153.535 51.8337C153.644 51.7604 153.73 51.6611 153.792 51.5332C153.854 51.4053 153.885 51.2563 153.885 51.0849C153.885 50.9135 153.854 50.7695 153.792 50.6429C153.73 50.515 153.644 50.4156 153.535 50.3424C153.426 50.2691 153.298 50.2331 153.153 50.2331C153.007 50.2331 152.881 50.2691 152.773 50.3424C152.665 50.4156 152.581 50.515 152.522 50.6429C152.462 50.7708 152.431 50.9173 152.431 51.0849C152.431 51.2525 152.461 51.4053 152.522 51.5332C152.581 51.6611 152.666 51.7604 152.773 51.8337C152.879 51.9069 153.006 51.9429 153.153 51.9429Z" fill="#074568"/>
</svg>
